<svg width="400" height="280" viewBox="0 0 400 280" fill="none" xmlns="http://www.w3.org/2000/svg">
  <!-- Background -->
  <rect width="400" height="280" fill="#18181B"/>

  <!-- Header -->
  <rect x="0" y="0" width="400" height="40" fill="#27272A"/>
  <rect x="16" y="14" width="60" height="12" rx="2" fill="#3B82F6"/>
  <circle cx="370" cy="20" r="8" fill="#3F3F46"/>

  <!-- Sidebar -->
  <rect x="0" y="40" width="100" height="240" fill="#27272A"/>
  <rect x="12" y="56" width="76" height="24" rx="4" fill="#3B82F6" opacity="0.2"/>
  <rect x="20" y="62" width="12" height="12" rx="2" fill="#3B82F6"/>
  <rect x="38" y="64" width="40" height="8" rx="2" fill="#A1A1AA"/>

  <rect x="20" y="92" width="12" height="12" rx="2" fill="#52525B"/>
  <rect x="38" y="94" width="32" height="8" rx="2" fill="#71717A"/>

  <rect x="20" y="116" width="12" height="12" rx="2" fill="#52525B"/>
  <rect x="38" y="118" width="36" height="8" rx="2" fill="#71717A"/>

  <!-- Main Content -->
  <rect x="116" y="56" width="120" height="16" rx="2" fill="#FAFAFA"/>
  <rect x="116" y="80" width="200" height="10" rx="2" fill="#71717A"/>

  <!-- Cards Row -->
  <rect x="116" y="108" width="124" height="100" rx="8" fill="#27272A"/>
  <rect x="128" y="120" width="60" height="10" rx="2" fill="#A1A1AA"/>
  <rect x="128" y="140" width="100" height="8" rx="2" fill="#52525B"/>
  <rect x="128" y="156" width="80" height="8" rx="2" fill="#52525B"/>
  <rect x="128" y="172" width="90" height="8" rx="2" fill="#52525B"/>
  <rect x="128" y="188" width="70" height="8" rx="2" fill="#52525B"/>

  <rect x="252" y="108" width="124" height="100" rx="8" fill="#27272A"/>
  <rect x="264" y="120" width="50" height="10" rx="2" fill="#A1A1AA"/>
  <circle cx="276" cy="148" r="12" fill="#3F3F46"/>
  <rect x="296" y="144" width="60" height="8" rx="2" fill="#52525B"/>
  <circle cx="276" cy="172" r="12" fill="#3F3F46"/>
  <rect x="296" y="168" width="60" height="8" rx="2" fill="#52525B"/>

  <!-- Bottom Card -->
  <rect x="116" y="220" width="260" height="48" rx="8" fill="#27272A"/>
  <rect x="128" y="232" width="60" height="10" rx="2" fill="#A1A1AA"/>
  <rect x="128" y="250" width="200" height="8" rx="2" fill="#52525B"/>
</svg>
