<svg width="400" height="280" viewBox="0 0 400 280" fill="none" xmlns="http://www.w3.org/2000/svg">
  <!-- Background -->
  <rect width="400" height="280" fill="#18181B"/>

  <!-- Header -->
  <rect x="0" y="0" width="400" height="40" fill="#27272A"/>
  <rect x="16" y="14" width="60" height="12" rx="2" fill="#3B82F6"/>
  <circle cx="370" cy="20" r="8" fill="#3F3F46"/>

  <!-- Empty State Center -->
  <g transform="translate(200, 160)">
    <!-- Document Icon -->
    <rect x="-24" y="-48" width="48" height="56" rx="4" fill="#27272A" stroke="#3F3F46" stroke-width="2"/>
    <path d="M8 -48 L24 -32 L24 -48" fill="#3F3F46"/>
    <rect x="-14" y="-28" width="28" height="4" rx="1" fill="#52525B"/>
    <rect x="-14" y="-18" width="20" height="4" rx="1" fill="#52525B"/>
    <rect x="-14" y="-8" width="24" height="4" rx="1" fill="#52525B"/>

    <!-- Plus indicator -->
    <circle cx="20" cy="-8" r="14" fill="#3B82F6" opacity="0.2"/>
    <rect x="14" y="-10" width="12" height="4" rx="1" fill="#3B82F6"/>
    <rect x="18" y="-14" width="4" height="12" rx="1" fill="#3B82F6"/>

    <!-- Text below -->
    <rect x="-50" y="24" width="100" height="10" rx="2" fill="#71717A"/>
    <rect x="-36" y="42" width="72" height="8" rx="2" fill="#52525B"/>
  </g>
</svg>
